<?xml version="1.0" standalone="no"?><svg xmlns="http://www.w3.org/2000/svg" viewBox="0 0 1440 320"><path fill="#1d4ed8" fill-opacity="1" d="M0,256L18.5,224C36.9,192,74,128,111,112C147.7,96,185,128,222,138.7C258.5,149,295,139,332,112C369.2,85,406,43,443,21.3C480,0,517,0,554,21.3C590.8,43,628,85,665,101.3C701.5,117,738,107,775,90.7C812.3,75,849,53,886,42.7C923.1,32,960,32,997,37.3C1033.8,43,1071,53,1108,58.7C1144.6,64,1182,64,1218,85.3C1255.4,107,1292,149,1329,160C1366.2,171,1403,149,1422,138.7L1440,128L1440,320L1421.5,320C1403.1,320,1366,320,1329,320C1292.3,320,1255,320,1218,320C1181.5,320,1145,320,1108,320C1070.8,320,1034,320,997,320C960,320,923,320,886,320C849.2,320,812,320,775,320C738.5,320,702,320,665,320C627.7,320,591,320,554,320C516.9,320,480,320,443,320C406.2,320,369,320,332,320C295.4,320,258,320,222,320C184.6,320,148,320,111,320C73.8,320,37,320,18,320L0,320Z"></path></svg>